<svg width="20" height="20" viewBox="0 0 20 20" fill="none" xmlns="http://www.w3.org/2000/svg">
<path d="M6.11631 2.5H3.32237C2.86178 2.5 2.48698 2.87476 2.50035 3.33516C2.76678 12.5118 7.48828 17.2333 16.6648 17.4997C17.1252 17.513 17.5 17.1383 17.5 16.6777V13.8837C17.5 13.5541 17.3059 13.2554 17.0047 13.1216L14.2212 11.8844C13.9309 11.7554 13.5926 11.8025 13.3486 12.0058L11.6378 13.4315C11.3968 13.6323 11.0622 13.6818 10.7762 13.5531C8.38216 12.4758 7.52412 11.6178 6.44696 9.22375C6.31826 8.93775 6.36771 8.60317 6.5685 8.36217L7.99412 6.65144C8.19746 6.40743 8.24455 6.06909 8.11554 5.77883L6.87841 2.99527C6.74455 2.69409 6.44588 2.5 6.11631 2.5Z" stroke="white" stroke-width="1.5" stroke-linecap="round" stroke-linejoin="round"/>
</svg>
