<svg width="379" height="56" viewBox="0 0 379 56" fill="none" xmlns="http://www.w3.org/2000/svg">
<g clip-path="url(#clip0_436_4293)">
<path d="M77.7112 6.27048V49.7664H37.6079V6.27048H77.7112ZM83.9719 0.0290527H31.3461V56.009H83.9719V0.0290527Z" fill="#552BED"/>
<path d="M0.0246582 56.0077H8.50768L15.6681 46.056L22.8531 56.0077H31.3484L15.6681 34.2882L0.0246582 56.0077Z" fill="white"/>
<path d="M57.4487 21.9437L37.561 49.831H46.0217L62.7069 26.4348L63.8068 34.2391L70.6349 33.2831L67.8519 13.5448L48.0526 16.318L49.0127 23.125L57.4487 21.9437Z" fill="white"/>
<path d="M119.208 26.9715C118.24 26.2207 117.107 25.596 115.813 25.0985C114.517 24.6021 113.086 24.1983 111.52 23.8848C111.065 23.7989 110.559 23.6929 110.004 23.5657C109.449 23.4386 108.929 23.2746 108.445 23.076C107.961 22.8775 107.562 22.6298 107.25 22.3308C106.937 22.033 106.78 21.6861 106.78 21.2878C106.78 20.8338 106.922 20.4724 107.208 20.2013C107.492 19.9324 107.898 19.7261 108.425 19.5844C108.952 19.4427 109.571 19.3713 110.283 19.3713C111.051 19.3713 111.806 19.4773 112.546 19.6904C113.286 19.9034 114.005 20.2225 114.703 20.6486C115.4 21.0748 116.048 21.6136 116.646 22.2661L121.685 17.4136C120.944 16.3917 120.069 15.4971 119.059 14.7318C118.048 13.9654 116.802 13.3764 115.321 12.9648C113.841 12.5532 112.047 12.3479 109.94 12.3479C108.403 12.3479 106.929 12.5677 105.52 13.0072C104.111 13.4478 102.865 14.0859 101.784 14.9237C100.702 15.7614 99.8335 16.761 99.1789 17.9245C98.5232 19.088 98.1964 20.3653 98.1964 21.7563C98.1964 23.0336 98.4023 24.1826 98.8152 25.2045C99.2281 26.2263 99.8537 27.1277 100.694 27.9085C101.533 28.6894 102.58 29.3632 103.833 29.931C105.085 30.4988 106.551 30.9673 108.231 31.3366C108.687 31.4504 109.157 31.5563 109.64 31.6556C110.124 31.756 110.608 31.8899 111.093 32.0606C111.576 32.2312 112.018 32.422 112.416 32.6351C112.815 32.8481 113.128 33.0969 113.356 33.3802C113.584 33.6647 113.698 34.005 113.698 34.4021C113.698 34.8561 113.562 35.232 113.293 35.5299C113.022 35.8277 112.63 36.0408 112.118 36.168C111.605 36.2951 111.036 36.3599 110.409 36.3599C108.986 36.3599 107.52 36.0553 106.01 35.444C104.501 34.8338 103.035 33.6067 101.612 31.7616L96.6578 37.3382C97.6537 38.5586 98.7861 39.6239 100.053 40.532C101.32 41.44 102.785 42.1361 104.452 42.618C106.117 43.101 108.018 43.342 110.153 43.342C112.43 43.342 114.473 42.9649 116.281 42.2142C118.089 41.4623 119.527 40.3557 120.595 38.8932C121.663 37.4319 122.196 35.637 122.196 33.5074C122.196 32.0606 121.94 30.7967 121.428 29.7179C120.915 28.6392 120.174 27.7234 119.208 26.9715Z" fill="white"/>
<path d="M134.747 22.139C135.431 21.4585 136.234 20.9398 137.16 20.585C138.085 20.2303 139.074 20.0529 140.128 20.0529C141.039 20.0529 141.872 20.1745 142.627 20.4144C143.381 20.6564 144.058 20.99 144.656 21.415C145.253 21.8411 145.794 22.3242 146.278 22.8619L151.361 16.9874C150.421 15.9656 149.353 15.1145 148.158 14.4329C146.963 13.7513 145.687 13.2337 144.336 12.8789C142.983 12.5242 141.595 12.3468 140.172 12.3468C137.809 12.3468 135.63 12.7294 133.638 13.4958C131.645 14.2622 129.923 15.3409 128.471 16.7309C127.019 18.1219 125.887 19.7607 125.076 21.6482C124.264 23.5368 123.858 25.6016 123.858 27.8427C123.858 30.114 124.249 32.1922 125.033 34.0797C125.816 35.9683 126.926 37.5992 128.364 38.9758C129.802 40.3535 131.503 41.4244 133.468 42.1908C135.432 42.956 137.581 43.3398 139.917 43.3398C141.396 43.3398 142.87 43.1613 144.337 42.8077C145.803 42.4529 147.141 41.9632 148.352 41.3385C149.561 40.7138 150.522 40.0043 151.234 39.2101L147.22 32.866C146.708 33.3769 146.124 33.8443 145.469 34.2705C144.814 34.6955 144.095 35.0368 143.313 35.2923C142.53 35.5478 141.697 35.6749 140.814 35.6749C139.561 35.6749 138.43 35.4909 137.419 35.1216C136.409 34.7524 135.54 34.2348 134.814 33.5677C134.088 32.9017 133.533 32.0918 133.149 31.1414C132.765 30.1909 132.573 29.1189 132.573 27.9264C132.573 26.6781 132.765 25.5715 133.149 24.6054C133.53 23.6439 134.063 22.8206 134.747 22.139Z" fill="white"/>
<path d="M171.482 13.1132H164.65L152.735 42.9148H160.977L162.807 37.9763H173.07L174.899 42.9148H183.312L171.482 13.1132ZM165.013 32.0159L166.101 29.0787C166.385 28.2845 166.649 27.5605 166.891 26.9079C167.133 26.2553 167.353 25.6306 167.552 25.0338C167.694 24.6099 167.831 24.1648 167.966 23.7119C168.097 24.1559 168.226 24.6032 168.363 25.0338C168.563 25.6585 168.776 26.2977 169.004 26.9503C169.231 27.6029 169.487 28.3124 169.772 29.0787L170.86 32.0159H165.013Z" fill="white"/>
<path d="M194.049 35.6348V13.1132H185.594V42.9159H207.074V35.6348H194.049Z" fill="white"/>
<path d="M218.385 35.9761V31.0789H230.299V24.524H218.385V20.0529H232.008V13.1132H210.272V42.9159H232.008V35.9761H218.385Z" fill="white"/>
<path d="M294.969 21.4998C294.194 19.6123 293.081 17.9669 291.633 16.5657C290.184 15.1646 288.491 14.077 286.554 13.305C284.617 12.532 282.486 12.1471 280.162 12.1471C277.838 12.1471 275.7 12.532 273.748 13.305C271.797 14.077 270.104 15.1646 268.669 16.5657C267.234 17.968 266.122 19.6123 265.334 21.4998C264.544 23.3884 264.15 25.4767 264.15 27.7657C264.15 30.0258 264.544 32.1074 265.334 34.0094C266.122 35.9125 267.234 37.5646 268.669 38.9657C270.104 40.368 271.797 41.4545 273.748 42.2276C275.7 42.9995 277.837 43.3855 280.162 43.3855C282.486 43.3855 284.617 42.9995 286.554 42.2276C288.491 41.4545 290.184 40.368 291.633 38.9657C293.082 37.5646 294.194 35.9125 294.969 34.0094C295.743 32.1074 296.13 30.0124 296.13 27.7222C296.131 25.4622 295.744 23.3884 294.969 21.4998ZM286.899 30.8547C286.539 31.7984 286.03 32.6217 285.37 33.3222C284.71 34.0239 283.934 34.5594 283.046 34.9308C282.156 35.3034 281.195 35.4886 280.162 35.4886C279.1 35.4886 278.125 35.3023 277.235 34.9308C276.345 34.5594 275.571 34.0228 274.911 33.3222C274.25 32.6217 273.74 31.7995 273.382 30.8547C273.023 29.9098 272.844 28.8802 272.844 27.7646C272.844 26.6201 273.023 25.5837 273.382 24.6534C273.74 23.7241 274.25 22.9087 274.911 22.207C275.571 21.5065 276.345 20.9699 277.235 20.5984C278.125 20.2269 279.1 20.0406 280.162 20.0406C281.195 20.0406 282.156 20.2269 283.046 20.5984C283.934 20.971 284.71 21.5065 285.37 22.207C286.03 22.9087 286.539 23.7308 286.899 24.6746C287.257 25.6183 287.437 26.648 287.437 27.7646C287.436 28.8802 287.257 29.9109 286.899 30.8547Z" fill="#552BED"/>
<path d="M321.685 17.8096C320.78 16.2936 319.546 15.1 317.983 14.2265C316.419 13.3541 314.647 12.918 312.667 12.918H299.323V42.9561H307.845V33.6H312.666C314.646 33.6 316.417 33.1427 317.982 32.2268C319.545 31.3121 320.779 30.0593 321.683 28.4719C322.588 26.8845 323.04 25.0751 323.04 23.0437C323.04 21.0703 322.589 19.3267 321.685 17.8096ZM313.893 24.8464C313.62 25.3049 313.254 25.6552 312.795 25.8984C312.335 26.1416 311.805 26.262 311.203 26.262H307.716V20.2549H311.203C311.806 20.2549 312.337 20.362 312.795 20.5761C313.254 20.7903 313.62 21.1127 313.893 21.5422C314.166 21.9717 314.303 22.5149 314.303 23.172C314.303 23.8324 314.166 24.3902 313.893 24.8464Z" fill="#552BED"/>
<path d="M345.16 19.8689V12.918H326.177V19.8689H331.429V36.004H326.177V42.9561H345.16V36.004H339.952V19.8689H345.16Z" fill="#552BED"/>
<path d="M376.12 35.6381L376.104 35.598L375.292 33.5521L375.272 33.5008L367.102 12.918H360.215L348.206 42.9561H356.513L358.357 37.9785H366.47H366.536H368.702L369.134 39.1454L369.142 39.1666L370.546 42.9572H379.026L376.12 35.6381ZM360.582 31.9702L361.678 29.0096C361.965 28.2086 362.231 27.4791 362.475 26.8209C362.719 26.1628 362.941 25.5325 363.142 24.9323C363.285 24.5051 363.423 24.0566 363.559 23.6004C363.691 24.0488 363.821 24.4984 363.96 24.9323C364.16 25.5615 364.375 26.2063 364.605 26.8633C364.835 27.5215 365.093 28.2365 365.38 29.0096L366.476 31.9702H360.582Z" fill="#552BED"/>
<path d="M258.53 12.918H258.409H235.164V20.2549H243.983H244.009H244.289V42.9561H252.811V20.2549H262.237V12.918H258.53Z" fill="#552BED"/>
</g>
<defs>
<clipPath id="clip0_436_4293">
<rect width="379" height="56" fill="white"/>
</clipPath>
</defs>
</svg>
