<svg width="20" height="20" viewBox="0 0 20 20" fill="none" xmlns="http://www.w3.org/2000/svg">
<path d="M5.83325 7.08337L8.28494 8.53287C9.71425 9.37796 10.2856 9.37796 11.7149 8.53287L14.1666 7.08337" stroke="white" stroke-width="1.5" stroke-linecap="round" stroke-linejoin="round"/>
<path d="M1.67989 11.2297C1.73437 13.7842 1.7616 15.0616 2.70421 16.0077C3.64682 16.954 4.95869 16.9869 7.58244 17.0528C9.1995 17.0935 10.8007 17.0935 12.4178 17.0528C15.0415 16.9869 16.3533 16.954 17.2959 16.0077C18.2386 15.0616 18.2658 13.7842 18.3203 11.2297C18.3378 10.4082 18.3378 9.59165 18.3203 8.77032C18.2658 6.21568 18.2386 4.93837 17.2959 3.99218C16.3533 3.04599 15.0415 3.01303 12.4178 2.9471C10.8007 2.90647 9.1995 2.90647 7.58244 2.94709C4.95869 3.01301 3.64682 3.04597 2.70421 3.99217C1.7616 4.93836 1.73436 6.21567 1.67989 8.77023C1.66237 9.59165 1.66237 10.4082 1.67989 11.2297Z" stroke="white" stroke-width="1.5" stroke-linejoin="round"/>
</svg>
