<svg width="64" height="64" viewBox="0 0 64 64" fill="none" xmlns="http://www.w3.org/2000/svg">
<path opacity="0.4" d="M5.33325 18.6667H12.9733C14.9112 18.6667 16.7697 17.7075 18.1401 16.0002C20.0971 13.5618 22.9918 12.7103 25.6174 13.8008L29.3333 15.3441M5.33325 42.5782H9.65507C12.747 42.5782 14.293 42.5782 15.7549 42.9902C15.826 43.0102 15.8968 43.031 15.9674 43.0523C17.4202 43.4936 18.7065 44.3224 21.2791 45.9806C26.3142 49.2256 28.8319 50.8483 31.5751 50.6507C31.7045 50.6414 31.8335 50.6288 31.9623 50.6136C34.6922 50.2872 36.8317 48.219 41.1109 44.0822L45.3333 40" stroke="#BDABFF" stroke-width="1.5" stroke-linecap="round"/>
<path d="M58.6667 19.2903H51.9552C49.1131 19.2903 47.1064 17.7459 45.0675 15.6869C43.7469 14.3533 42.0616 13.5673 40.2901 13.4591C38.3093 13.338 36.0141 13.1676 34.0907 13.6961C31.9496 14.2842 30.536 15.8951 29.0405 17.5786L25.1816 21.923C23.6061 23.6966 23.6061 26.5722 25.1816 28.3459C26.5413 29.8766 28.6717 30.1142 30.2717 28.9131C31.4232 28.0491 32.7315 26.6535 34.0883 26.214C35.6152 25.7194 36.5624 26.8307 37.4277 27.9998L43.6149 36.3584C45.9112 39.4603 47.0592 41.0115 48.6288 41.839C50.1984 42.6667 51.9917 42.6667 55.5787 42.6667H58.6667" stroke="#BDABFF" stroke-width="1.5" stroke-linecap="round"/>
</svg>
