<svg width="64" height="64" viewBox="0 0 64 64" fill="none" xmlns="http://www.w3.org/2000/svg">
<path opacity="0.4" d="M5.33325 18.6666H12.9733C14.9112 18.6666 16.7697 17.7075 18.1401 16.0001C20.0971 13.5617 22.9918 12.7103 25.6174 13.8008L29.3333 15.344M5.33325 42.5781H9.65507C12.747 42.5781 14.293 42.5781 15.7549 42.9901C15.826 43.0101 15.8968 43.0309 15.9674 43.0522C17.4202 43.4936 18.7065 44.3224 21.2791 45.9805C26.3142 49.2256 28.8319 50.8482 31.5751 50.6506C31.7045 50.6413 31.8335 50.6288 31.9623 50.6136C34.6922 50.2872 36.8317 48.2189 41.1109 44.0821L45.3333 40" stroke="#BDABFF" stroke-width="1.5" stroke-linecap="round"/>
<path d="M58.6667 19.2902H51.9552C49.1131 19.2902 47.1064 17.7458 45.0675 15.6869C43.7469 14.3532 42.0616 13.5672 40.2901 13.459C38.3093 13.338 36.0141 13.1676 34.0907 13.696C31.9496 14.2841 30.536 15.895 29.0405 17.5785L25.1816 21.9229C23.6061 23.6965 23.6061 26.5721 25.1816 28.3459C26.5413 29.8765 28.6717 30.1141 30.2717 28.9131C31.4232 28.0491 32.7315 26.6535 34.0883 26.214C35.6152 25.7193 36.5624 26.8307 37.4277 27.9997L43.6149 36.3584C45.9112 39.4603 47.0592 41.0115 48.6288 41.8389C50.1984 42.6667 51.9917 42.6667 55.5787 42.6667H58.6667" stroke="#BDABFF" stroke-width="1.5" stroke-linecap="round"/>
</svg>
